<?xml version="1.0" encoding="utf-8"?>
<!-- Generator: Adobe Illustrator 26.0.0, SVG Export Plug-In . SVG Version: 6.00 Build 0)  -->
<svg version="1.1" id="Capa_1" xmlns="http://www.w3.org/2000/svg" xmlns:xlink="http://www.w3.org/1999/xlink" x="0px" y="0px"
	 viewBox="0 0 480 640" style="enable-background:new 0 0 480 640;" xml:space="preserve">
<style type="text/css">
	.st0{fill:#FFFFFF;}
	.st1{fill:url(#SVGID_1_);}
	.st2{fill:url(#SVGID_00000124134449298807138000000004245204303281109662_);}
	.st3{fill:#E2E0E0;}
</style>
<path d="M336.2,49.7"/>
<path d="M399.1-34.6"/>
<path d="M402.9,92"/>
<path d="M256.7,158.4"/>
<g>
	<g>
		<path class="st0" d="M156.6,141.9c-5.1,51.5-10.1,103-14.9,154.7c-1.4,14.6-2.7,29.2-4.1,43.8c-0.6,6,21.1,6,21.7,0
			c5.1-51.5,10.1-103.2,14.9-154.7c1.4-14.6,2.7-29.2,4.1-43.8C178.8,135.9,157.2,135.9,156.6,141.9L156.6,141.9z"/>
	</g>
</g>
<g>
	<g>
		<path class="st0" d="M211.7,275.9c-32.2,1.3-64.6-3.4-96.8,0.9c-28.8,3.8-34.3,5-47.2,14.8c-11.1,8.4-16.6,25.5-13.9,41
			c3.9,22.2,25.2,33.4,37.5,39.9c31.7,16.6,63.3,11.9,78.6,9.4c27.3-4.5,53.4-16.3,75.1-33.3c22.1-17.4,38.9-40.8,45.3-68.5
			c6.2-27,2.6-55.4-8.8-80.3c-12.4-27.1-33.9-49.4-60.5-62.7c-14.8-7.5-30.7-12-47.2-14c-8.1-0.9-16.3-1.1-24.3-0.7
			c-8.2,0.4-16.7,1.3-24.7,3.4c-28.5,7.7-52.2,18.3-71.5,41.2c-3.7,5.5-7.3,11.1-11.4,23.3c-0.8,7.7-0.2,7.7,2.6,2.3
			c13.3-24.3,36.3-41.2,62-51.1c6.7-2.6,13.7-4.9,20.8-6.7c7.3-2.1,15.2-2.6,22.7-3c15.5-0.7,31.1,0.9,45.9,5.4
			c27.7,8.2,42.8,25.2,58.7,49.3c14,21.3,17.5,48.9,16.2,74.4c-1.3,25.8-8.1,40.7-24.4,65c-16.2,21.7-33.1,34.5-57.7,42.2
			c-12.3,3.9-41,13.1-74.1,3.2c-8.4-2.5-47.7-14.3-50.3-40.8c-1.1-11.4,3.4-24.6,12.3-32.3c5-4.3,12.5-8,20.2-9.3
			c30.1-5.1,62.8-3.6,93.7-3.1c7.3,0.2,14.4,0.2,21.7-0.2C217.7,285.1,217.7,275.7,211.7,275.9z"/>
	</g>
</g>
<g>
	<linearGradient id="SVGID_1_" gradientUnits="userSpaceOnUse" x1="210.5" y1="283.7" x2="438.4" y2="283.7">
		<stop  offset="5.028069e-03" style="stop-color:#FFFFFF"/>
		<stop  offset="0.1376" style="stop-color:#F8F8F8"/>
		<stop  offset="0.3309" style="stop-color:#E5E5E5"/>
		<stop  offset="0.5614" style="stop-color:#C5C5C5"/>
		<stop  offset="0.8183" style="stop-color:#999999"/>
		<stop  offset="1" style="stop-color:#757575"/>
	</linearGradient>
	<path class="st1" d="M438.4,286.6c-75.3-3.7-152.2-3.2-227.9-5.8"/>
	<g>
		
			<linearGradient id="SVGID_00000127018754421803492930000003070088519662344832_" gradientUnits="userSpaceOnUse" x1="194.4" y1="283.7" x2="431.3" y2="283.7">
			<stop  offset="5.028069e-03" style="stop-color:#FFFFFF"/>
			<stop  offset="0.1875" style="stop-color:#F8F8F8"/>
			<stop  offset="0.4535" style="stop-color:#E5E5E5"/>
			<stop  offset="0.769" style="stop-color:#C5C5C5"/>
			<stop  offset="1" style="stop-color:#A9A9A9"/>
		</linearGradient>
		<path style="fill:url(#SVGID_00000127018754421803492930000003070088519662344832_);" d="M426.8,281.9
			c-59.4-3-118.7-3.2-178.1-4.5c-16.7-0.4-33.1-0.7-49.8-1.3c-6-0.2-6,9.2,0,9.4c59.4,2.1,118.9,2.1,178.3,3.9
			c16.5,0.6,33.1,1.1,49.6,1.9C432.8,291.5,432.8,282.1,426.8,281.9L426.8,281.9z"/>
	</g>
</g>
<g>
	<g>
		<path class="st3" d="M304,286.6c0.6,26.6-0.1,54.2,0.6,80.8c0.4,13.3,0.1,25.8,0.3,39.1s0,27.4-0.3,40.7c0,0.6-0.8,6.3-1.1,7.1
			c0,0-0.3,2.1-1.9,7.1c-2.9,7.7-5.4,10.5-5.4,10.5c-3.6,5.6-7,7.7-12,10.7c-7.5,4.1-13.7,5.1-22.8,6.4c-8.1,1.1-17,1.3-24.5,0.4
			c-2.1-0.2-4.1-0.7-6.4-1.1c-0.9-0.2-1.9-0.6-2.8-0.7c-0.4-0.2-0.7-0.2-1.1-0.4c-0.9-0.4-0.2,0-0.7-0.4c-5.2-2.4-10.1-5.4-14.2-9.2
			c-7.9-6.9-13.9-15.9-17-26c-1.7-5.8-10.9-3.4-9,2.4c3,9.9,8.6,19.1,15.9,26.6c6.9,7.3,16.1,13.7,25.8,16.5
			c8.4,2.4,17.6,2.8,26.4,2.2c9.2-0.6,18.7-0.5,27.3-3.3c8.8-3,18.3-7.3,24.7-14c6.7-7.3,11.1-17.6,14.3-27.1
			c1.1-3.7,1.6-7.4,1.6-11.1c0-7.1,0.1-13.4-0.1-20.6c-0.2-13.7,0.3-28.6,0-42.3c-0.7-31.5-2.4-62.7-3.1-94.1
			C318,280.2,303.8,280.4,304,286.6z"/>
	</g>
</g>
</svg>
